<mxfile host="app.diagrams.net" agent="Mozilla/5.0 (Windows NT 10.0; Win64; x64) AppleWebKit/537.36 (KHTML, like Gecko) Chrome/127.0.0.0 Safari/537.36 OPR/113.0.0.0" version="24.7.17">
  <diagram id="lY5VT98dAd1EK0WhE_sf" name="Page-2">
    <mxGraphModel dx="1788" dy="1035" grid="1" gridSize="10" guides="1" tooltips="1" connect="1" arrows="1" fold="1" page="1" pageScale="1" pageWidth="827" pageHeight="1169" math="0" shadow="0">
      <root>
        <mxCell id="0" />
        <mxCell id="1" parent="0" />
        <mxCell id="djg5CImKxkGWJsq5V7vE-25" style="edgeStyle=orthogonalEdgeStyle;rounded=0;orthogonalLoop=1;jettySize=auto;html=1;exitX=0.5;exitY=1;exitDx=0;exitDy=0;entryX=0.548;entryY=0;entryDx=0;entryDy=0;entryPerimeter=0;labelBackgroundColor=none;strokeColor=#788AA3;fontColor=default;" edge="1" parent="1" source="djg5CImKxkGWJsq5V7vE-1" target="djg5CImKxkGWJsq5V7vE-3">
          <mxGeometry relative="1" as="geometry">
            <mxPoint x="260.5" y="150" as="targetPoint" />
          </mxGeometry>
        </mxCell>
        <mxCell id="djg5CImKxkGWJsq5V7vE-1" value="&lt;span style=&quot;font-family: Georgia; font-size: 17px;&quot;&gt;Inicio&lt;/span&gt;" style="ellipse;whiteSpace=wrap;html=1;labelBackgroundColor=none;fillColor=#B2C9AB;strokeColor=#788AA3;fontColor=#46495D;" vertex="1" parent="1">
          <mxGeometry x="177.5" y="30" width="166" height="90" as="geometry" />
        </mxCell>
        <mxCell id="djg5CImKxkGWJsq5V7vE-3" value="" style="strokeWidth=2;html=1;shape=mxgraph.flowchart.display;whiteSpace=wrap;labelBackgroundColor=none;fillColor=#B2C9AB;strokeColor=#788AA3;fontColor=#46495D;" vertex="1" parent="1">
          <mxGeometry x="180.5" y="160" width="146" height="90" as="geometry" />
        </mxCell>
        <mxCell id="djg5CImKxkGWJsq5V7vE-4" value="" style="html=1;strokeWidth=2;shape=manualInput;whiteSpace=wrap;rounded=1;size=26;arcSize=11;labelBackgroundColor=none;fillColor=#B2C9AB;strokeColor=#788AA3;fontColor=#46495D;" vertex="1" parent="1">
          <mxGeometry x="180.5" y="270" width="150" height="70" as="geometry" />
        </mxCell>
        <mxCell id="djg5CImKxkGWJsq5V7vE-8" value="" style="rounded=1;whiteSpace=wrap;html=1;absoluteArcSize=1;arcSize=14;strokeWidth=2;labelBackgroundColor=none;fillColor=#B2C9AB;strokeColor=#788AA3;fontColor=#46495D;" vertex="1" parent="1">
          <mxGeometry x="150" y="585" width="203" height="70" as="geometry" />
        </mxCell>
        <mxCell id="djg5CImKxkGWJsq5V7vE-11" value="&lt;span style=&quot;color: rgb(0, 0, 0); font-family: Georgia; font-size: 17px; font-style: normal; font-variant-ligatures: normal; font-variant-caps: normal; font-weight: 400; letter-spacing: normal; orphans: 2; text-align: center; text-indent: 0px; text-transform: none; widows: 2; word-spacing: 0px; -webkit-text-stroke-width: 0px; white-space: normal; text-decoration-thickness: initial; text-decoration-style: initial; text-decoration-color: initial; float: none; display: inline !important;&quot;&gt;&quot;Digite um&lt;/span&gt;&lt;div&gt;&lt;span style=&quot;color: rgb(0, 0, 0); font-family: Georgia; font-size: 17px; font-style: normal; font-variant-ligatures: normal; font-variant-caps: normal; font-weight: 400; letter-spacing: normal; orphans: 2; text-align: center; text-indent: 0px; text-transform: none; widows: 2; word-spacing: 0px; -webkit-text-stroke-width: 0px; white-space: normal; text-decoration-thickness: initial; text-decoration-style: initial; text-decoration-color: initial; float: none; display: inline !important;&quot;&gt;numero inteiro&quot;&lt;/span&gt;&lt;/div&gt;" style="text;whiteSpace=wrap;html=1;labelBackgroundColor=none;fontColor=#46495D;" vertex="1" parent="1">
          <mxGeometry x="201.5" y="180" width="140" height="40" as="geometry" />
        </mxCell>
        <mxCell id="djg5CImKxkGWJsq5V7vE-12" value="&lt;span style=&quot;font-family: Georgia; font-size: 17px;&quot;&gt;Fim&lt;/span&gt;" style="ellipse;whiteSpace=wrap;html=1;labelBackgroundColor=none;fillColor=#B2C9AB;strokeColor=#788AA3;fontColor=#46495D;" vertex="1" parent="1">
          <mxGeometry x="172.5" y="810" width="166" height="90" as="geometry" />
        </mxCell>
        <mxCell id="djg5CImKxkGWJsq5V7vE-13" value="" style="strokeWidth=2;html=1;shape=mxgraph.flowchart.display;whiteSpace=wrap;labelBackgroundColor=none;fillColor=#B2C9AB;strokeColor=#788AA3;fontColor=#46495D;" vertex="1" parent="1">
          <mxGeometry x="176.5" y="370" width="146" height="90" as="geometry" />
        </mxCell>
        <mxCell id="djg5CImKxkGWJsq5V7vE-14" value="" style="html=1;strokeWidth=2;shape=manualInput;whiteSpace=wrap;rounded=1;size=26;arcSize=11;labelBackgroundColor=none;fillColor=#B2C9AB;strokeColor=#788AA3;fontColor=#46495D;" vertex="1" parent="1">
          <mxGeometry x="176.5" y="480" width="150" height="70" as="geometry" />
        </mxCell>
        <mxCell id="djg5CImKxkGWJsq5V7vE-15" value="&lt;span style=&quot;color: rgb(0, 0, 0); font-family: Georgia; font-size: 17px; font-style: normal; font-variant-ligatures: normal; font-variant-caps: normal; font-weight: 400; letter-spacing: normal; orphans: 2; text-align: center; text-indent: 0px; text-transform: none; widows: 2; word-spacing: 0px; -webkit-text-stroke-width: 0px; white-space: normal; text-decoration-thickness: initial; text-decoration-style: initial; text-decoration-color: initial; float: none; display: inline !important;&quot;&gt;&quot;Digite outro&lt;/span&gt;&lt;div&gt;&lt;span style=&quot;color: rgb(0, 0, 0); font-family: Georgia; font-size: 17px; font-style: normal; font-variant-ligatures: normal; font-variant-caps: normal; font-weight: 400; letter-spacing: normal; orphans: 2; text-align: center; text-indent: 0px; text-transform: none; widows: 2; word-spacing: 0px; -webkit-text-stroke-width: 0px; white-space: normal; text-decoration-thickness: initial; text-decoration-style: initial; text-decoration-color: initial; float: none; display: inline !important;&quot;&gt;numero inteiro&quot;&lt;/span&gt;&lt;/div&gt;" style="text;whiteSpace=wrap;html=1;labelBackgroundColor=none;fontColor=#46495D;" vertex="1" parent="1">
          <mxGeometry x="192.5" y="390" width="130" height="30" as="geometry" />
        </mxCell>
        <mxCell id="djg5CImKxkGWJsq5V7vE-30" style="edgeStyle=orthogonalEdgeStyle;rounded=0;orthogonalLoop=1;jettySize=auto;html=1;exitX=0.5;exitY=1;exitDx=0;exitDy=0;entryX=0.584;entryY=-0.022;entryDx=0;entryDy=0;entryPerimeter=0;labelBackgroundColor=none;strokeColor=#788AA3;fontColor=default;" edge="1" parent="1" source="djg5CImKxkGWJsq5V7vE-16" target="djg5CImKxkGWJsq5V7vE-13">
          <mxGeometry relative="1" as="geometry">
            <mxPoint x="261.5" y="360" as="targetPoint" />
          </mxGeometry>
        </mxCell>
        <mxCell id="djg5CImKxkGWJsq5V7vE-16" value="&lt;div style=&quot;text-align: center;&quot;&gt;&lt;font face=&quot;Georgia&quot;&gt;&lt;span style=&quot;font-size: 17px;&quot;&gt;num1 (Inteiro)&lt;/span&gt;&lt;/font&gt;&lt;/div&gt;" style="text;whiteSpace=wrap;html=1;labelBackgroundColor=none;fontColor=#46495D;" vertex="1" parent="1">
          <mxGeometry x="201.5" y="300" width="140" height="40" as="geometry" />
        </mxCell>
        <mxCell id="djg5CImKxkGWJsq5V7vE-17" value="&lt;div style=&quot;text-align: center;&quot;&gt;&lt;font face=&quot;Georgia&quot;&gt;&lt;span style=&quot;font-size: 17px;&quot;&gt;num2 (Inteiro)&lt;/span&gt;&lt;/font&gt;&lt;/div&gt;" style="text;whiteSpace=wrap;html=1;labelBackgroundColor=none;fontColor=#46495D;" vertex="1" parent="1">
          <mxGeometry x="190.5" y="510" width="140" height="40" as="geometry" />
        </mxCell>
        <mxCell id="djg5CImKxkGWJsq5V7vE-18" value="&lt;div style=&quot;text-align: center;&quot;&gt;&lt;span style=&quot;font-family: Georgia; font-size: 17px;&quot;&gt;soma=num1 + num2&lt;/span&gt;&lt;br&gt;&lt;/div&gt;" style="text;whiteSpace=wrap;html=1;labelBackgroundColor=none;fontColor=#46495D;" vertex="1" parent="1">
          <mxGeometry x="176.5" y="600" width="140" height="40" as="geometry" />
        </mxCell>
        <mxCell id="djg5CImKxkGWJsq5V7vE-40" style="edgeStyle=orthogonalEdgeStyle;rounded=0;orthogonalLoop=1;jettySize=auto;html=1;exitX=0.5;exitY=1;exitDx=0;exitDy=0;exitPerimeter=0;entryX=0.5;entryY=0;entryDx=0;entryDy=0;labelBackgroundColor=none;strokeColor=#788AA3;fontColor=default;" edge="1" parent="1" source="djg5CImKxkGWJsq5V7vE-19" target="djg5CImKxkGWJsq5V7vE-12">
          <mxGeometry relative="1" as="geometry" />
        </mxCell>
        <mxCell id="djg5CImKxkGWJsq5V7vE-19" value="" style="strokeWidth=2;html=1;shape=mxgraph.flowchart.display;whiteSpace=wrap;labelBackgroundColor=none;fillColor=#B2C9AB;strokeColor=#788AA3;fontColor=#46495D;" vertex="1" parent="1">
          <mxGeometry x="176.5" y="690" width="146" height="90" as="geometry" />
        </mxCell>
        <mxCell id="djg5CImKxkGWJsq5V7vE-21" value="&lt;span style=&quot;color: rgb(0, 0, 0); font-family: Georgia; font-size: 17px; font-style: normal; font-variant-ligatures: normal; font-variant-caps: normal; font-weight: 400; letter-spacing: normal; orphans: 2; text-align: center; text-indent: 0px; text-transform: none; widows: 2; word-spacing: 0px; -webkit-text-stroke-width: 0px; white-space: normal; text-decoration-thickness: initial; text-decoration-style: initial; text-decoration-color: initial; float: none; display: inline !important;&quot;&gt;soma&lt;/span&gt;" style="text;whiteSpace=wrap;html=1;labelBackgroundColor=none;fontColor=#46495D;" vertex="1" parent="1">
          <mxGeometry x="235.5" y="715" width="50" height="40" as="geometry" />
        </mxCell>
        <mxCell id="djg5CImKxkGWJsq5V7vE-26" style="edgeStyle=orthogonalEdgeStyle;rounded=0;orthogonalLoop=1;jettySize=auto;html=1;exitX=0.5;exitY=1;exitDx=0;exitDy=0;exitPerimeter=0;entryX=0.54;entryY=0.143;entryDx=0;entryDy=0;entryPerimeter=0;labelBackgroundColor=none;strokeColor=#788AA3;fontColor=default;" edge="1" parent="1" source="djg5CImKxkGWJsq5V7vE-3" target="djg5CImKxkGWJsq5V7vE-4">
          <mxGeometry relative="1" as="geometry" />
        </mxCell>
        <mxCell id="djg5CImKxkGWJsq5V7vE-35" style="edgeStyle=orthogonalEdgeStyle;rounded=0;orthogonalLoop=1;jettySize=auto;html=1;exitX=0.5;exitY=1;exitDx=0;exitDy=0;exitPerimeter=0;entryX=0.567;entryY=0.143;entryDx=0;entryDy=0;entryPerimeter=0;labelBackgroundColor=none;strokeColor=#788AA3;fontColor=default;" edge="1" parent="1" source="djg5CImKxkGWJsq5V7vE-13" target="djg5CImKxkGWJsq5V7vE-14">
          <mxGeometry relative="1" as="geometry" />
        </mxCell>
        <mxCell id="djg5CImKxkGWJsq5V7vE-37" style="edgeStyle=orthogonalEdgeStyle;rounded=0;orthogonalLoop=1;jettySize=auto;html=1;exitX=0.5;exitY=1;exitDx=0;exitDy=0;entryX=0.55;entryY=0.043;entryDx=0;entryDy=0;entryPerimeter=0;labelBackgroundColor=none;strokeColor=#788AA3;fontColor=default;" edge="1" parent="1" source="djg5CImKxkGWJsq5V7vE-17" target="djg5CImKxkGWJsq5V7vE-8">
          <mxGeometry relative="1" as="geometry" />
        </mxCell>
        <mxCell id="djg5CImKxkGWJsq5V7vE-39" style="edgeStyle=orthogonalEdgeStyle;rounded=0;orthogonalLoop=1;jettySize=auto;html=1;exitX=0.5;exitY=1;exitDx=0;exitDy=0;entryX=0.582;entryY=0;entryDx=0;entryDy=0;entryPerimeter=0;labelBackgroundColor=none;strokeColor=#788AA3;fontColor=default;" edge="1" parent="1" source="djg5CImKxkGWJsq5V7vE-8" target="djg5CImKxkGWJsq5V7vE-19">
          <mxGeometry relative="1" as="geometry" />
        </mxCell>
      </root>
    </mxGraphModel>
  </diagram>
</mxfile>
